Coordinates
version=1
nRows=9
nColumns=42
inDegrees=yes

Units are S.I. units (second, meters, Newtons, ...)
If the header above contains a line with 'inDegrees', this indicates whether rotational values are in degrees (yes) or radians (no).

endheader
time	pelvis_tilt	pelvis_list	pelvis_rotation	pelvis_tx	pelvis_ty	pelvis_tz	hip_flexion_r	hip_adduction_r	hip_rotation_r	knee_angle_r	knee_adduction_r	knee_angle_r_beta	ankle_angle_r	subtalar_angle_r	mtp_angle_r	hip_flexion_l	hip_adduction_l	hip_rotation_l	knee_angle_l	knee_adduction_l	knee_angle_l_beta	ankle_angle_l	subtalar_angle_l	mtp_angle_l	lumbar_extension	lumbar_bending	lumbar_rotation	arm_flex_r	arm_add_r	arm_rot_r	elbow_flex_r	pro_sup_r	wrist_flex_r	wrist_dev_r	arm_flex_l	arm_add_l	arm_rot_l	elbow_flex_l	pro_sup_l	wrist_flex_l	wrist_dev_l
      2.91000000	     -4.34765631	      0.61540330	     -0.27508820	      1.53820465	      0.93721852	     -0.06750245	     -6.17440727	      3.53959835	      1.47676189	      3.98012450	     -7.71767041	      0.06946628	     22.25242117	      6.70912408	     -7.50050311	     31.02793367	     -0.48208172	      5.25747573	     25.29051282	     -0.22457720	      0.44140272	      4.01922416	    -15.78892032	     -7.50050311	     -1.87714144	     -4.20218471	     -0.59750488	      2.41714854	    -14.11884987	      2.23790296	     34.32205499	     90.00000001	      0.00000000	      0.00000000	    -13.86887165	    -11.53809690	    -10.51687166	     20.52435704	     90.00000001	      0.00000000	      0.00000000
      2.92000000	     -4.89298079	     -0.00446172	     -0.36721576	      1.54804923	      0.93390429	     -0.06782054	     -6.23705765	      4.25793586	      1.46485233	      4.06258973	     -7.86561019	      0.07090557	     22.81070127	      6.92866002	     -7.50049480	     31.75987686	     -1.13603194	      5.23894610	     22.08390698	     -1.02502111	      0.38543689	      3.93668027	    -14.48932964	     -7.50049480	     -1.40418255	     -3.55972592	     -0.40293463	      2.94276846	    -14.45087993	      2.56990539	     34.26905573	     90.00000001	      0.00000000	      0.00000000	    -14.40697470	    -11.37756320	    -10.55650514	     20.48526839	     90.00000001	      0.00000000	      0.00000000
      2.93000000	     -4.95546824	     -0.36499663	     -0.39380196	      1.55834217	      0.93122863	     -0.06853086	     -6.89494158	      4.51483788	      1.10861129	      4.05834655	     -7.70398803	      0.07083151	     23.39332863	      7.40579949	     -7.50047141	     31.65202445	     -1.44065557	      5.04898474	     18.55237741	     -1.93372810	      0.32380007	      3.92368366	    -12.68381472	     -7.50047141	     -1.48714488	     -3.20683261	     -0.38593554	      3.55863506	    -14.77176184	      3.18379424	     34.21168065	     90.00000001	      0.00000000	      0.00000000	    -14.83144390	    -11.19862580	    -10.87325518	     20.34854080	     90.00000001	      0.00000000	      0.00000000
      2.94000000	     -5.40084887	     -0.97156739	     -0.54017288	      1.56842111	      0.92797564	     -0.06895506	     -7.02773005	      5.15829339	      1.02155012	      4.24693157	     -7.74933224	      0.07412294	     23.93839413	      7.62643549	     -7.50046039	     32.22252601	     -2.13055707	      4.56255469	     15.73061415	     -2.71128037	      0.27455101	      3.93448583	    -10.90311529	     -7.50046039	     -1.12244576	     -2.57314472	     -0.20774057	      4.06841952	    -15.06510859	      3.52988714	     34.10884593	     90.00000001	      0.00000000	      0.00000000	    -15.27773699	    -11.01911703	    -10.92747490	     20.25997849	     90.00000001	      0.00000000	      0.00000000
      2.95000000	     -5.80803704	     -1.51971206	     -0.70516104	      1.57863216	      0.92478998	     -0.06936132	     -7.21975606	      5.76774394	      1.01428672	      4.44618031	     -7.86097068	      0.07760049	     24.44148365	      7.84401687	     -7.50045243	     32.78154077	     -2.78474678	      3.77330454	     13.25705146	     -3.39893613	      0.23137920	      3.92160031	     -9.10800234	     -7.50045243	     -0.80491021	     -2.01895405	     -0.01213484	      4.53684779	    -15.32257686	      3.83663950	     34.00655557	     90.00000001	      0.00000000	      0.00000000	    -15.68395490	    -10.88101959	    -10.98245540	     20.18404801	     90.00000001	      0.00000000	      0.00000000
      2.96000000	     -5.75165898	     -1.89073774	     -1.04191487	      1.58956570	      0.92214259	     -0.06990628	     -7.96955742	      6.01554527	      0.77413718	      4.58230038	     -7.74813961	      0.07997623	     24.98635742	      8.61113814	     -7.50041832	     33.13823069	     -3.45267369	      0.80728563	     11.70536158	     -4.03469282	      0.20429710	      5.39374944	     -4.12990658	     -7.50041832	     -0.95906871	     -1.63415742	      0.29578209	      4.95296870	    -15.60683029	      4.27644011	     34.06786179	     90.00000001	      0.00000000	      0.00000000	    -15.98625255	    -10.65925428	    -11.47276702	     20.02713295	     90.00000001	      0.00000000	      0.00000000
      2.97000000	     -5.97497741	     -2.27859829	     -1.25870007	      1.60013698	      0.91932726	     -0.07058597	     -8.26934591	      6.34242354	      0.68094549	      5.03928843	     -7.71801529	      0.08795218	     25.47583290	      8.59419047	     -7.50039792	     33.67137839	     -4.03249577	     -0.99167281	     10.25038271	     -4.37200660	      0.17890293	      5.94123748	     -1.39354889	     -7.50039792	     -0.83217733	     -1.23422467	      0.53218374	      5.31110996	    -15.82198112	      4.43138240	     34.00683586	     90.00000001	      0.00000000	      0.00000000	    -16.23303840	    -10.51666125	    -11.55770254	     19.82937961	     90.00000001	      0.00000000	      0.00000000
      2.98000000	     -6.16478595	     -2.59673401	     -1.56425534	      1.61086397	      0.91668666	     -0.07128334	     -8.65399397	      6.56984468	      0.74011574	      5.40754706	     -7.69414592	      0.09437950	     25.86296136	      8.76963740	     -7.50037455	     34.29266550	     -4.64996358	     -3.38806010	      9.46612500	     -4.51164283	      0.16521505	      6.76081822	      1.90688299	     -7.50037455	     -0.74733627	     -0.90904975	      0.85719002	      5.61100818	    -15.97969220	      4.48057939	     33.95683212	     90.00000001	      0.00000000	      0.00000000	    -16.42501385	    -10.37223194	    -11.73885449	     19.70062880	     90.00000001	      0.00000000	      0.00000000
      2.99000000	     -6.33912184	     -2.80884315	     -1.82626422	      1.62168638	      0.91422184	     -0.07206515	     -9.03786093	      6.65856326	      0.81078431	      5.82496976	     -7.64053858	      0.10166490	     26.18553172	      8.81217586	     -7.50035307	     34.80447344	     -5.11392470	     -5.34038143	      8.97079302	     -4.51374187	      0.15656987	      7.29125468	      4.40404699	     -7.50035307	     -0.67917675	     -0.71984558	      1.13124984	      5.85270766	    -16.05912622	      4.42278855	     33.89794691	     90.00000001	      0.00000000	      0.00000000	    -16.55830838	    -10.28975152	    -11.88630048	     19.53341747	     90.00000001	      0.00000000	      0.00000000
